<?xml version="1.0" encoding="UTF-8"?>
<svg xmlns="http://www.w3.org/2000/svg" xmlns:xlink="http://www.w3.org/1999/xlink" width="300pt" height="300pt" viewBox="0 0 608 608" version="1.1">
<g id="surface1">
<path style=" stroke:none;fill-rule:nonzero;fill:rgb(0%,0%,0%);fill-opacity:1;" d="M 324.105469 217.269531 C 322.605469 217.945312 318.929688 218.472656 315.480469 218.621094 C 310.453125 218.695312 308.652344 219.148438 304.601562 221.097656 C 297.472656 224.550781 293.269531 230.027344 285.242188 246.082031 L 278.714844 259.210938 L 278.714844 267.464844 C 278.792969 274.367188 279.09375 276.691406 280.816406 281.867188 C 282.84375 287.871094 282.84375 288.167969 281.792969 291.996094 C 279.015625 301.597656 278.265625 310.601562 277.964844 335.359375 C 277.816406 354.640625 277.515625 360.945312 276.539062 365.371094 C 274.664062 373.996094 274.816406 382.625 276.992188 386.976562 C 278.867188 390.804688 282.691406 393.878906 285.542969 393.878906 C 286.59375 393.878906 287.34375 394.328125 287.34375 394.929688 C 287.34375 395.53125 288.394531 396.878906 289.59375 397.929688 C 291.546875 399.582031 291.695312 399.882812 290.644531 400.480469 C 288.621094 401.605469 290.195312 403.109375 292.894531 402.65625 C 294.171875 402.433594 295.824219 402.058594 296.574219 401.757812 C 297.699219 401.308594 297.847656 401.683594 297.847656 404.832031 C 297.847656 406.859375 297.621094 411.285156 297.324219 414.660156 C 296.949219 420.4375 296.796875 420.738281 295.445312 420.0625 C 293.421875 418.9375 291.171875 419.914062 290.644531 422.164062 C 289.894531 424.941406 291.171875 426.515625 294.398438 426.742188 L 297.097656 426.964844 L 296.574219 430.117188 C 296.273438 431.84375 295.972656 438.070312 295.972656 443.921875 L 295.972656 454.574219 L 294.320312 453 C 291.394531 450.296875 287.644531 453.300781 289.519531 456.824219 C 290.570312 458.777344 292.894531 459.449219 294.847656 458.402344 C 296.273438 457.652344 296.347656 457.800781 296.347656 462.753906 C 296.347656 468.527344 296.046875 468.902344 290.269531 468.902344 L 287.570312 468.902344 L 282.992188 446.621094 C 280.515625 434.316406 276.464844 414.738281 274.066406 403.03125 L 269.714844 381.875 L 265.8125 381.875 C 263.035156 381.875 261.835938 381.574219 261.835938 380.898438 C 261.835938 378.5 258.761719 355.316406 257.632812 349.613281 C 256.433594 343.011719 254.859375 338.8125 255.460938 343.613281 C 256.359375 350.441406 257.410156 362.59375 257.109375 362.820312 C 256.960938 362.96875 255.382812 360.417969 253.582031 357.117188 C 251.707031 353.890625 250.132812 351.265625 249.980469 351.414062 C 249.457031 351.941406 253.507812 359.894531 255.757812 362.667969 C 257.035156 364.246094 258.085938 366.496094 258.085938 367.546875 C 258.085938 368.597656 258.308594 371.296875 258.535156 373.398438 L 259.058594 377.375 L 254.558594 373.023438 C 244.128906 363.195312 238.578125 358.167969 238.578125 358.617188 C 238.578125 359.96875 243.378906 365.519531 248.179688 369.871094 C 251.109375 372.496094 254.558594 376.097656 255.835938 377.824219 L 258.160156 381.125 L 248.632812 381.125 L 244.582031 373.398438 C 241.355469 367.171875 240.679688 366.269531 241.054688 368.671875 C 241.28125 370.246094 242.554688 373.699219 243.753906 376.324219 L 246.007812 381.125 L 231.902344 381.125 L 231.375 378.425781 C 231.074219 376.925781 231.074219 373.621094 231.300781 371.148438 C 231.675781 366.644531 231.675781 366.570312 230.550781 368.671875 C 229.726562 370.171875 229.5 372.347656 229.726562 375.949219 L 230.027344 381.125 L 225.75 381.125 C 223.5 381.125 221.398438 380.898438 221.097656 380.675781 C 220.574219 380.074219 222.148438 376.925781 225.523438 371.746094 C 227.175781 369.269531 228.523438 365.746094 229.574219 361.242188 C 231 355.015625 231.375 354.265625 235.050781 350.664062 C 237.226562 348.488281 241.054688 344.289062 243.679688 341.210938 C 246.230469 338.210938 249.757812 334.085938 251.484375 332.132812 C 253.207031 330.109375 255.984375 327.707031 257.710938 326.734375 C 261.234375 324.632812 268.886719 323.355469 274.289062 323.882812 C 277.367188 324.257812 277.816406 324.105469 276.992188 323.28125 C 276.316406 322.53125 273.914062 322.230469 268.738281 322.230469 C 262.285156 322.230469 261.011719 322.457031 257.710938 324.257812 C 253.957031 326.28125 247.582031 331.910156 247.582031 333.257812 C 247.582031 334.011719 239.703125 342.789062 233.027344 349.613281 C 229.277344 353.441406 228.824219 354.265625 227.324219 360.117188 C 226.425781 364.019531 224.699219 368.371094 222.824219 371.371094 C 221.246094 374.074219 219.523438 377.148438 218.996094 378.273438 L 218.097656 380.375 L 207.894531 380.375 C 202.265625 380.375 165.429688 379.699219 126.042969 378.875 C 36.160156 377 39.988281 377 39.164062 378.648438 C 38.636719 379.625 43.289062 394.480469 55.894531 432.515625 C 65.421875 461.402344 73.222656 485.109375 73.074219 485.257812 C 72.925781 485.558594 8.777344 489.160156 3.601562 489.160156 L 0 489.160156 L 0 491.785156 C 0 495.011719 -4.5 494.9375 39.613281 492.460938 C 58.820312 491.410156 74.722656 490.886719 75.023438 491.1875 C 75.324219 491.488281 76.523438 494.5625 77.574219 497.9375 L 79.601562 504.015625 L 83.128906 504.464844 C 85.078125 504.765625 127.015625 508.816406 176.308594 513.542969 C 225.597656 518.34375 272.941406 522.847656 281.417969 523.746094 L 296.871094 525.246094 L 301.300781 522.847656 C 307.601562 519.394531 314.878906 514.59375 319.003906 511.21875 C 336.859375 496.214844 341.363281 491.9375 341.363281 489.910156 C 341.363281 487.660156 339.335938 487.210938 324.855469 486.234375 C 307.601562 485.183594 292.445312 483.910156 291.320312 483.535156 C 290.421875 483.234375 288.394531 475.054688 289.070312 474.382812 C 289.746094 473.78125 388.628906 467.179688 389.226562 467.703125 C 389.527344 468.003906 387.203125 470.703125 384.125 473.707031 C 377.222656 480.308594 374.597656 483.535156 373.472656 486.683594 L 372.574219 489.085938 L 358.542969 488.9375 C 342.414062 488.785156 342.039062 488.859375 340.6875 495.238281 C 339.785156 499.515625 339.636719 511.59375 340.460938 512.867188 C 342.789062 516.394531 349.914062 516.769531 415.113281 517.070312 C 473.554688 517.296875 474.304688 517.296875 475.429688 515.792969 C 477.832031 512.570312 474.980469 499.890625 470.78125 495.3125 L 468.304688 492.613281 L 453.449219 492.085938 C 445.195312 491.785156 438.445312 491.5625 438.371094 491.488281 C 438.21875 491.488281 438.144531 490.4375 438.144531 489.234375 C 438.144531 487.136719 438.445312 486.910156 444.296875 484.960938 C 449.472656 483.234375 451.273438 482.183594 454.800781 478.808594 C 459.976562 473.855469 461.25 470.554688 459.902344 465.304688 C 459.449219 463.503906 459.300781 461.777344 459.527344 461.550781 C 459.902344 461.101562 600.871094 447.972656 605.675781 447.898438 C 607.476562 447.898438 607.699219 447.597656 607.699219 445.269531 C 607.699219 443.621094 607.324219 442.644531 606.722656 442.644531 C 605.523438 442.644531 467.105469 455.175781 462.152344 455.699219 C 458.925781 456.074219 458.699219 455.925781 457.125 453.449219 C 455.699219 451.199219 455.398438 449.773438 455.398438 444.296875 C 455.398438 435.59375 454.5 432.667969 450.296875 428.242188 C 447.972656 425.765625 446.847656 423.964844 446.996094 422.839844 C 447.148438 421.9375 446.171875 419.011719 444.972656 416.238281 C 443.695312 413.460938 441.371094 406.859375 439.71875 401.53125 C 438.144531 396.207031 435.292969 388.851562 433.492188 385.175781 C 428.765625 375.796875 420.4375 356.667969 419.386719 352.691406 C 418.710938 350.140625 416.988281 347.8125 411.433594 342.113281 C 404.757812 335.210938 400.40625 332.132812 396.128906 331.308594 C 394.480469 330.933594 393.953125 330.035156 392.152344 324.257812 C 390.730469 319.753906 388.777344 315.628906 385.851562 311.351562 C 379.101562 301.222656 376.699219 295.445312 375.796875 287.269531 C 374.898438 278.117188 371.070312 259.585938 368.371094 250.808594 C 365.296875 240.828125 362.292969 235.652344 355.992188 229.726562 C 349.839844 223.796875 344.4375 220.496094 336.785156 217.945312 C 330.558594 215.769531 327.78125 215.695312 324.105469 217.269531 Z M 335.660156 219.824219 C 346.839844 223.648438 357.792969 232.652344 362.144531 241.65625 C 366.121094 249.90625 371.371094 271.214844 372.871094 285.46875 C 373.324219 289.59375 374.074219 294.171875 374.523438 295.597656 C 375.722656 299.574219 379.476562 306.625 383.375 312.476562 C 387.878906 319.304688 392.679688 331.308594 390.203125 329.808594 C 389.753906 329.507812 384.726562 327.859375 379.023438 326.207031 C 371.070312 323.882812 366.945312 323.132812 361.019531 322.832031 L 353.214844 322.382812 L 351.941406 319.304688 C 350.515625 316.152344 349.316406 311.050781 348.488281 305.5 C 348.039062 302.800781 348.414062 301.449219 350.441406 297.097656 C 352.464844 292.894531 353.441406 291.695312 355.765625 290.644531 C 361.917969 287.871094 365.371094 281.191406 365.371094 271.964844 C 365.371094 266.863281 365.144531 266.113281 363.269531 264.011719 C 360.492188 260.859375 356.140625 260.710938 353.589844 263.710938 C 352.617188 264.761719 351.867188 266.1875 351.867188 266.789062 C 351.867188 273.238281 339.636719 278.265625 333.933594 274.066406 C 330.183594 271.214844 329.058594 267.539062 327.859375 253.207031 C 326.507812 237.078125 324.78125 233.925781 316.902344 232.953125 C 310.753906 232.277344 306.699219 233.476562 302.648438 237.226562 C 296.347656 243.003906 292.972656 252.90625 293.046875 265.585938 C 293.046875 272.265625 293.496094 274.742188 295.597656 282.09375 C 297.621094 288.996094 298.148438 291.996094 298.148438 297.171875 C 298.074219 303.101562 297.847656 304.148438 294.996094 310.378906 C 293.269531 314.054688 291.847656 317.429688 291.847656 317.730469 C 291.847656 318.929688 295.746094 314.730469 297.621094 311.425781 C 299.347656 308.578125 299.648438 308.351562 300.324219 309.550781 C 300.699219 310.378906 302.050781 312.101562 303.324219 313.378906 C 304.601562 314.730469 305.726562 316.605469 305.875 317.503906 C 306.027344 318.480469 306.476562 321.253906 306.851562 323.730469 C 308.050781 331.160156 307.75 346.164062 306.101562 356.667969 C 304.449219 367.246094 304.148438 379.101562 305.425781 382.402344 C 305.800781 383.527344 307.074219 385.402344 308.125 386.527344 L 310.152344 388.628906 L 307.152344 389.902344 C 305.125 390.730469 303.773438 392.003906 302.875 393.878906 C 301.972656 395.753906 300.398438 397.253906 297.921875 398.605469 C 293.421875 401.082031 293.195312 401.082031 294.171875 398.832031 C 294.773438 397.554688 294.773438 396.65625 294.171875 395.679688 C 293.421875 394.328125 293.421875 394.40625 293.347656 395.90625 C 293.347656 398.15625 292.445312 398.082031 289.820312 395.753906 C 287.792969 393.953125 287.792969 393.804688 289.070312 392.828125 C 290.34375 391.855469 290.34375 391.703125 288.769531 390.578125 C 287.792969 389.976562 286.292969 387.277344 285.320312 384.351562 L 283.519531 379.25 L 283.894531 383.152344 C 284.117188 385.328125 284.792969 388.101562 285.46875 389.304688 C 286.894531 392.078125 286.21875 392.230469 282.769531 389.902344 C 277.515625 386.378906 276.617188 380.148438 279.167969 366.121094 C 280.742188 357.644531 280.96875 354.339844 281.042969 332.359375 C 281.117188 314.277344 281.492188 305.949219 282.394531 300.097656 C 282.992188 295.746094 283.59375 291.695312 283.59375 291.097656 C 283.59375 290.496094 284.269531 291.394531 285.019531 293.046875 C 285.769531 294.773438 286.820312 296.421875 287.34375 296.722656 C 288.84375 297.699219 287.792969 293.046875 284.34375 283.59375 C 281.792969 276.539062 281.117188 273.691406 280.816406 268.0625 L 280.367188 261.234375 L 285.394531 250.582031 C 296.199219 227.550781 302.5 221.246094 314.804688 220.871094 C 317.953125 220.796875 321.03125 220.273438 322.304688 219.523438 C 325.308594 217.945312 330.558594 218.023438 335.660156 219.824219 Z M 323.207031 237.976562 C 324.707031 240.902344 325.082031 243.304688 325.605469 253.132812 C 326.355469 265.664062 326.957031 269.039062 329.359375 272.941406 C 332.132812 277.515625 339.863281 279.617188 345.414062 277.292969 C 349.238281 275.714844 353.367188 271.738281 353.367188 269.5625 C 353.367188 265.8125 356.441406 262.8125 359.367188 263.710938 C 362.070312 264.535156 363.34375 268.363281 362.894531 273.914062 C 362.144531 282.542969 359.066406 287.269531 352.539062 289.59375 C 350.289062 290.421875 349.390625 291.394531 347.738281 294.773438 C 346.613281 297.097656 343.988281 301.523438 341.886719 304.601562 C 336.859375 311.878906 330.035156 316.304688 322.082031 317.503906 C 317.503906 318.253906 316.605469 318.179688 313.601562 316.828125 C 311.726562 315.929688 307.902344 313.378906 305.125 310.976562 L 300.023438 306.699219 L 300.550781 303.625 C 301.675781 297.023438 301 290.195312 298.523438 282.09375 C 296.347656 275.117188 296.046875 273.164062 296.046875 265.210938 C 295.972656 259.734375 296.347656 254.785156 297.023438 252.457031 C 298.597656 246.757812 302.347656 240.152344 305.199219 237.976562 C 307.976562 235.878906 314.652344 234.078125 318.855469 234.300781 C 321.179688 234.453125 321.707031 234.828125 323.207031 237.976562 Z M 346.613281 310.226562 C 346.613281 311.878906 347.289062 315.027344 348.039062 317.28125 L 349.464844 321.40625 L 347.738281 325.382812 C 345.488281 330.410156 343.011719 332.734375 336.859375 335.511719 C 329.582031 338.8125 323.355469 340.085938 318.628906 339.1875 C 311.050781 337.761719 310.902344 337.609375 310.378906 331.835938 C 309.925781 327.03125 308.578125 320.957031 307.226562 317.878906 C 306.777344 316.753906 307.152344 316.828125 309.476562 318.40625 C 315.179688 322.304688 323.582031 322.007812 332.285156 317.578125 C 337.535156 314.878906 345.113281 307.976562 345.113281 305.875 C 345.1875 303.476562 346.613281 307.601562 346.613281 310.226562 Z M 358.019531 325.980469 C 359.144531 327.484375 358.542969 334.160156 356.667969 340.835938 C 353.667969 351.640625 352.765625 353.890625 347.0625 363.496094 C 342.9375 370.472656 340.085938 374.222656 334.234375 380.226562 C 325.757812 388.929688 324.03125 392.078125 322.605469 401.757812 C 322.15625 405.058594 321.253906 410.460938 320.730469 413.761719 C 320.207031 417.0625 319.378906 423.664062 318.855469 428.390625 C 318.40625 433.117188 317.355469 440.019531 316.527344 443.769531 C 315.628906 447.445312 314.804688 454.347656 314.578125 458.925781 L 314.128906 467.402344 L 311.425781 467.402344 C 309.925781 467.402344 306.402344 467.628906 303.476562 467.929688 L 298.222656 468.378906 L 304.976562 462.902344 C 308.726562 459.902344 311.878906 457.277344 312.027344 457.125 C 312.175781 457.050781 311.953125 456.898438 311.503906 456.898438 C 311.050781 456.898438 307.976562 459.074219 304.75 461.703125 L 298.824219 466.429688 L 298.296875 453.972656 C 297.921875 446.546875 298.074219 438.96875 298.523438 435.144531 C 298.972656 431.617188 299.421875 422.390625 299.5 414.585938 L 299.722656 400.480469 L 302.199219 397.855469 C 303.476562 396.429688 304.601562 394.78125 304.601562 394.179688 C 304.601562 393.65625 305.875 392.605469 307.375 392.003906 C 310.753906 390.578125 312.628906 388.929688 314.128906 386.152344 C 315.480469 383.449219 315.027344 382.925781 312.703125 384.425781 C 310.753906 385.703125 309.777344 385.328125 308.425781 382.777344 C 306.550781 379.324219 306.625 372.046875 308.652344 358.09375 C 309.703125 350.589844 310.601562 343.085938 310.601562 341.4375 L 310.601562 338.4375 L 313.152344 339.9375 C 318.78125 343.238281 328.382812 342.488281 337.984375 337.910156 C 344.4375 334.835938 348.265625 331.382812 349.988281 326.882812 L 351.265625 323.582031 L 354.339844 324.40625 C 356.066406 324.855469 357.71875 325.53125 358.019531 325.980469 Z M 372.121094 326.582031 C 376.023438 327.78125 381.277344 329.359375 383.75 330.109375 C 386.226562 330.859375 389.527344 331.984375 391.027344 332.660156 C 392.605469 333.335938 394.554688 333.859375 395.378906 333.859375 C 398.082031 333.859375 401.53125 336.109375 407.308594 341.664062 C 414.585938 348.640625 417.136719 352.242188 417.136719 355.316406 C 417.136719 356.667969 417.585938 358.242188 418.1875 358.84375 C 418.789062 359.441406 420.363281 362.746094 421.714844 366.195312 C 422.988281 369.648438 426.515625 377.75 429.515625 384.125 C 432.515625 390.503906 435.21875 396.957031 435.519531 398.382812 C 436.417969 402.582031 441.144531 415.785156 442.71875 418.5625 C 444.445312 421.5625 444.144531 422.238281 441.746094 420.589844 C 439.644531 419.085938 430.867188 419.085938 426.515625 420.511719 C 423.589844 421.5625 423.738281 421.5625 429.890625 421.1875 C 433.417969 420.964844 437.167969 421.113281 438.292969 421.414062 C 440.695312 422.089844 449.699219 430.566406 451.199219 433.492188 C 452.324219 435.820312 453.449219 445.496094 452.773438 447.371094 C 452.324219 448.347656 451.273438 447.824219 446.546875 444.371094 C 443.320312 442.046875 439.644531 439.121094 438.371094 437.917969 C 437.019531 436.644531 435.742188 435.820312 435.519531 435.96875 C 434.84375 436.71875 439.945312 442.046875 445.496094 446.398438 C 456.148438 454.574219 455.476562 453.597656 456.601562 460.652344 C 458.324219 471.15625 458.25 471.457031 453.375 476.480469 C 450.375 479.558594 447.824219 481.359375 445.121094 482.410156 L 441.144531 483.910156 L 441.144531 480.308594 C 441.144531 477.90625 440.394531 475.429688 438.96875 472.65625 C 437.019531 468.828125 436.492188 468.378906 431.316406 466.128906 C 428.242188 464.777344 424.566406 463.652344 423.0625 463.652344 C 421.414062 463.652344 419.464844 462.902344 417.8125 461.703125 C 415.863281 460.277344 414.511719 459.902344 412.261719 460.050781 C 410.460938 460.125 408.285156 459.675781 406.785156 458.925781 C 403.933594 457.351562 401.007812 457.726562 397.03125 459.976562 C 394.328125 461.550781 394.480469 461.027344 397.855469 456.675781 C 399.054688 455.175781 400.480469 453.898438 401.082031 453.898438 C 401.605469 453.898438 406.257812 451.199219 411.285156 447.898438 C 420.964844 441.445312 423.738281 440.46875 431.242188 440.394531 C 433.792969 440.394531 435.894531 440.09375 435.894531 439.644531 C 435.894531 438.445312 432.742188 438.070312 428.765625 438.820312 C 426.742188 439.195312 424.941406 439.417969 424.789062 439.269531 C 424.640625 439.121094 426.289062 438.371094 428.464844 437.542969 C 432.515625 436.042969 434.167969 434.394531 431.617188 434.394531 C 429.742188 434.394531 421.113281 438.59375 417.511719 441.21875 C 415.863281 442.421875 411.359375 445.496094 407.535156 448.046875 C 400.632812 452.550781 400.480469 452.625 399.132812 451.199219 C 397.554688 449.699219 396.054688 442.796875 397.40625 443.621094 C 398.757812 444.445312 408.359375 433.644531 411.210938 428.015625 C 415.261719 420.289062 416.085938 417.289062 414.660156 415.785156 C 412.859375 413.984375 409.484375 415.785156 403.558594 421.789062 C 397.855469 427.492188 396.582031 430.191406 401.605469 425.839844 C 408.132812 420.214844 412.035156 417.136719 412.710938 417.136719 C 416.011719 417.136719 407.160156 433.265625 400.480469 439.496094 L 398.605469 441.21875 L 397.03125 435.742188 C 392.304688 419.464844 391.402344 410.160156 393.578125 397.707031 C 394.253906 393.878906 394.628906 390.578125 394.40625 390.429688 C 393.65625 389.601562 390.878906 405.734375 390.878906 411.210938 C 390.878906 417.136719 393.578125 432.816406 395.679688 438.59375 C 396.28125 440.394531 396.582031 443.097656 396.355469 445.347656 C 396.054688 447.972656 396.355469 449.847656 397.179688 451.574219 C 398.457031 453.898438 398.382812 453.972656 395.753906 457.425781 C 394.328125 459.300781 393.128906 461.175781 393.128906 461.476562 C 393.128906 461.851562 391.855469 462.152344 390.351562 462.152344 C 388.777344 462.152344 372.046875 463.203125 353.214844 464.476562 C 334.386719 465.753906 318.40625 466.652344 317.730469 466.351562 C 316.605469 465.976562 316.527344 465.003906 316.980469 459.300781 C 317.203125 455.699219 318.253906 448.871094 319.230469 444.144531 C 320.207031 439.417969 321.40625 431.316406 321.855469 426.140625 C 322.304688 420.964844 323.054688 415.113281 323.429688 413.011719 C 323.804688 410.984375 324.632812 406.183594 325.230469 402.433594 C 326.808594 392.605469 328.234375 390.054688 336.261719 381.875 C 341.738281 376.324219 344.511719 372.722656 348.640625 365.746094 C 355.015625 354.867188 355.84375 353.066406 358.617188 342.488281 C 360.945312 333.933594 361.394531 328.609375 360.117188 325.230469 C 359.367188 323.28125 359.441406 323.28125 362.21875 323.804688 C 363.71875 324.105469 368.222656 325.308594 372.121094 326.582031 Z M 166.328125 383.226562 C 221.246094 384.351562 266.335938 385.402344 266.5625 385.625 C 266.789062 385.851562 271.214844 406.933594 276.390625 432.515625 C 281.644531 458.101562 287.792969 488.410156 290.195312 499.8125 C 292.519531 511.21875 294.246094 520.746094 294.097656 520.894531 C 293.871094 521.121094 246.230469 516.621094 188.160156 511.066406 L 82.527344 500.863281 L 62.945312 441.894531 C 52.140625 409.484375 43.140625 382.550781 42.914062 382.027344 C 42.464844 380.824219 46.964844 380.824219 166.328125 383.226562 Z M 295.671875 422.464844 C 296.722656 424.566406 295.597656 425.765625 293.046875 425.089844 C 290.796875 424.566406 290.496094 422.839844 292.445312 421.714844 C 294.320312 420.589844 294.695312 420.664062 295.671875 422.464844 Z M 294.695312 455.699219 C 295.070312 457.425781 292.746094 458.101562 291.320312 456.675781 C 289.59375 454.949219 290.570312 453 292.746094 453.824219 C 293.722656 454.125 294.546875 455.023438 294.695312 455.699219 Z M 405.882812 461.027344 C 406.933594 461.625 409.183594 462.078125 410.984375 462.152344 C 415.335938 462.152344 419.164062 464.851562 426.589844 473.253906 C 434.769531 482.484375 436.570312 486.160156 437.167969 495.386719 C 437.46875 500.714844 437.394531 502.890625 436.644531 503.789062 C 435.441406 505.292969 432.441406 505.214844 431.84375 503.714844 C 431.617188 503.039062 431.917969 498.3125 432.59375 493.289062 C 433.644531 484.882812 433.644531 483.835938 432.59375 481.808594 C 431.390625 479.40625 430.042969 478.207031 429.441406 478.882812 C 429.214844 479.109375 429.589844 480.382812 430.265625 481.660156 C 431.617188 484.210938 431.542969 486.535156 429.742188 498.914062 C 428.839844 505.367188 428.089844 507.167969 426.289062 507.167969 C 424.265625 507.167969 423.140625 505.667969 423.140625 502.890625 C 423.140625 500.414062 423.738281 499.964844 427.117188 500.265625 C 427.941406 500.339844 428.242188 500.113281 427.941406 499.589844 C 427.714844 499.140625 426.664062 498.914062 425.691406 499.140625 C 423.964844 499.4375 423.964844 499.363281 423.964844 492.085938 C 423.890625 482.707031 422.839844 477.382812 421.5625 480.609375 C 421.1875 481.507812 420.964844 480.609375 420.964844 477.90625 C 420.886719 475.65625 420.511719 473.253906 420.136719 472.65625 C 419.613281 471.90625 419.386719 474.457031 419.386719 480.53125 C 419.3125 491.710938 418.414062 494.710938 415.1875 495.011719 C 409.632812 495.539062 408.058594 490.660156 409.484375 477.605469 C 410.234375 470.855469 410.085938 468.902344 408.734375 468.902344 C 408.359375 468.902344 408.285156 469.203125 408.507812 469.65625 C 408.734375 470.03125 408.734375 471.53125 408.507812 472.957031 C 408.132812 474.832031 407.535156 475.582031 406.183594 475.882812 C 405.207031 476.03125 404.609375 475.882812 404.832031 475.582031 C 405.058594 475.207031 405.734375 474.90625 406.332031 474.90625 C 406.933594 474.90625 407.382812 474.53125 407.382812 474.082031 C 407.382812 473.628906 406.933594 473.40625 406.332031 473.628906 C 405.433594 474.007812 405.433594 473.628906 405.957031 471.679688 C 406.785156 468.679688 406.785156 468.152344 405.882812 468.152344 C 405.507812 468.152344 405.132812 468.753906 405.132812 469.429688 C 405.132812 470.179688 404.082031 472.957031 402.882812 475.507812 C 401.605469 478.132812 400.632812 481.507812 400.558594 483.007812 C 400.558594 484.585938 400.03125 486.984375 399.507812 488.410156 L 398.457031 491.035156 L 398.605469 488.1875 C 398.679688 484.808594 397.03125 482.785156 394.703125 483.535156 C 393.878906 483.757812 393.128906 484.359375 393.128906 484.808594 C 393.128906 485.257812 393.578125 485.183594 394.328125 484.660156 C 395.980469 483.234375 397.332031 484.960938 397.855469 488.9375 C 398.230469 492.085938 398.15625 492.160156 396.128906 492.160156 C 393.65625 492.160156 392.078125 490.511719 392.605469 488.484375 C 392.828125 487.660156 392.605469 486.835938 392.152344 486.683594 C 391.328125 486.460938 392.304688 474.53125 393.503906 469.65625 C 393.878906 468.230469 393.804688 468.003906 393.203125 468.902344 C 392.753906 469.503906 392.003906 471.980469 391.554688 474.304688 C 390.878906 477.605469 390.351562 478.65625 389.078125 478.957031 C 388.175781 479.183594 386.226562 480.53125 384.652344 481.882812 C 382.101562 484.285156 381.875 484.808594 381.949219 488.109375 C 382.027344 490.136719 382.175781 490.960938 382.402344 489.910156 C 383.074219 485.410156 383.601562 484.585938 386.378906 482.785156 C 389.976562 480.53125 390.652344 480.382812 388.703125 482.332031 C 386.753906 484.285156 386.003906 488.410156 386.828125 493.136719 C 387.425781 496.589844 387.800781 497.1875 390.128906 498.3125 C 393.28125 499.8125 393.878906 499.964844 393.878906 498.839844 C 393.878906 498.464844 392.753906 497.640625 391.328125 497.039062 C 389.453125 496.214844 388.703125 495.386719 388.328125 493.585938 C 387.652344 489.984375 387.800781 486.761719 388.929688 484.285156 L 389.902344 482.035156 L 390.503906 486.535156 C 391.105469 491.488281 391.777344 492.761719 394.480469 493.738281 C 397.03125 494.710938 398.757812 493.960938 400.105469 491.335938 L 401.15625 489.085938 L 402.734375 491.636719 C 405.734375 496.738281 405.660156 497.1875 401.382812 497.789062 C 399.355469 498.089844 397.855469 498.613281 398.082031 498.988281 C 398.605469 499.890625 401.15625 499.8125 404.15625 498.765625 C 406.558594 497.863281 406.632812 497.714844 406.632812 493.585938 C 406.632812 487.960938 405.808594 482.410156 405.058594 482.410156 C 404.683594 482.410156 404.382812 482.859375 404.382812 483.460938 C 404.382812 484.058594 403.859375 484.660156 403.257812 484.960938 C 402.355469 485.257812 402.132812 484.808594 402.132812 482.859375 C 402.132812 479.78125 402.808594 477.757812 403.632812 478.28125 C 404.007812 478.507812 405.058594 478.355469 406.035156 477.980469 L 407.835938 477.308594 L 407.757812 485.183594 C 407.757812 492.835938 407.835938 493.0625 409.859375 494.863281 C 411.285156 496.136719 412.859375 496.664062 414.886719 496.664062 C 418.789062 496.664062 420.214844 494.488281 420.886719 487.808594 C 421.339844 482.859375 421.339844 482.859375 421.9375 485.710938 C 422.3125 487.285156 422.390625 492.238281 422.089844 496.589844 C 421.714844 502.664062 421.261719 504.839844 420.289062 505.890625 C 418.488281 507.691406 411.734375 508.667969 400.855469 508.667969 C 386.828125 508.667969 384.050781 507.015625 383.828125 498.613281 C 383.675781 493.511719 381.875 490.8125 381.875 495.761719 C 381.875 498.988281 381.5 499.363281 379.625 498.164062 C 378.199219 497.261719 378.574219 492.160156 380.226562 490.886719 C 380.976562 490.359375 381.125 489.984375 380.601562 489.910156 C 379.101562 489.910156 377.375 493.0625 377.898438 495.011719 C 378.199219 496.4375 378.125 496.738281 377.375 496.289062 C 375.875 495.386719 374.222656 490.660156 374.75 488.484375 C 375.273438 486.085938 381.199219 478.65625 384.652344 476.179688 C 386.003906 475.207031 389.453125 471.53125 392.378906 468.003906 C 398.679688 460.277344 401.757812 458.699219 405.882812 461.027344 Z M 431.765625 468.828125 C 436.195312 471.15625 438.894531 475.582031 438.894531 480.683594 C 438.894531 484.660156 437.84375 484.808594 435.96875 481.058594 C 435.144531 479.484375 433.34375 476.707031 431.84375 474.832031 C 425.464844 466.804688 425.164062 466.503906 424.566406 467.554688 C 424.191406 468.078125 423.890625 468.152344 423.890625 467.703125 C 423.890625 465.378906 425.839844 465.679688 431.765625 468.828125 Z M 404.15625 488.9375 C 403.933594 489.6875 403.78125 489.085938 403.78125 487.660156 C 403.78125 486.234375 403.933594 485.632812 404.15625 486.308594 C 404.308594 487.058594 404.308594 488.261719 404.15625 488.9375 Z M 305.574219 487.960938 C 312.253906 488.5625 321.105469 489.3125 325.230469 489.535156 C 336.710938 490.359375 336.710938 490.359375 327.332031 496.363281 C 304.976562 510.917969 297.773438 514.96875 296.949219 513.695312 C 296.046875 512.269531 296.273438 509.042969 297.324219 507.917969 C 298.074219 507.015625 297.996094 507.015625 296.949219 507.84375 C 295.824219 508.667969 295.597656 508.292969 294.847656 504.390625 C 294.398438 501.988281 293.796875 499.4375 293.648438 498.6875 C 293.269531 497.488281 293.648438 497.414062 297.621094 497.789062 C 302.347656 498.238281 301.300781 497.113281 296.273438 496.289062 C 293.722656 495.914062 293.421875 495.613281 292.597656 492.3125 C 292.070312 490.359375 291.546875 488.109375 291.320312 487.359375 C 291.019531 486.308594 291.246094 486.011719 292.144531 486.386719 C 292.820312 486.683594 298.824219 487.359375 305.574219 487.960938 Z M 369.648438 491.113281 C 372.121094 491.410156 372.796875 491.863281 373.171875 493.289062 C 373.847656 495.988281 377.148438 499.515625 380 500.488281 C 381.949219 501.238281 382.625 501.988281 383 503.867188 C 383.976562 509.042969 389.078125 510.992188 401.53125 510.84375 C 411.585938 510.769531 419.386719 509.71875 420.8125 508.292969 C 421.714844 507.390625 422.164062 507.390625 424.039062 508.367188 C 426.664062 509.71875 428.992188 509.117188 430.042969 506.792969 C 430.714844 505.292969 431.015625 505.214844 432.667969 506.042969 C 437.019531 508.292969 440.167969 503.941406 439.34375 496.886719 L 438.894531 492.988281 L 442.796875 493.363281 C 444.972656 493.585938 451.5 494.039062 457.199219 494.335938 C 467.253906 494.9375 467.777344 495.085938 469.429688 496.964844 C 471.304688 499.140625 473.253906 504.917969 473.929688 510.242188 C 474.304688 513.46875 474.15625 513.84375 472.582031 514.371094 C 470.105469 515.269531 354.867188 514.746094 348.863281 513.84375 C 341.664062 512.792969 341.0625 511.894531 341.585938 501.539062 C 341.738281 496.964844 342.1875 492.6875 342.488281 492.011719 C 342.863281 491.113281 344.136719 490.660156 346.839844 490.4375 C 351.191406 490.136719 364.769531 490.511719 369.648438 491.113281 Z M 324.105469 502.890625 C 324.105469 503.039062 321.40625 505.441406 318.105469 508.21875 C 312.027344 513.394531 300.699219 520.671875 298.824219 520.671875 C 298.296875 520.671875 297.847656 519.847656 297.847656 518.71875 C 297.847656 517.296875 298.375 516.621094 300.324219 516.019531 C 303.324219 514.96875 313.828125 509.492188 314.351562 508.667969 C 314.652344 508.21875 323.28125 502.816406 323.957031 502.664062 C 324.03125 502.664062 324.105469 502.816406 324.105469 502.890625 Z M 324.105469 502.890625 "/>
<path style=" stroke:none;fill-rule:nonzero;fill:rgb(0%,0%,0%);fill-opacity:1;" d="M 350.742188 335.210938 C 347.890625 337.910156 346.238281 339.710938 347.140625 339.261719 C 349.316406 338.0625 356.816406 331.082031 356.367188 330.632812 C 356.140625 330.410156 353.667969 332.507812 350.742188 335.210938 Z M 350.742188 335.210938 "/>
<path style=" stroke:none;fill-rule:nonzero;fill:rgb(0%,0%,0%);fill-opacity:1;" d="M 330.109375 344.738281 C 327.40625 345.261719 322.90625 345.9375 319.980469 346.238281 C 315.253906 346.765625 314.953125 346.914062 316.980469 347.515625 C 320.730469 348.640625 332.507812 346.6875 336.109375 344.363281 C 337.609375 343.386719 336.636719 343.464844 330.109375 344.738281 Z M 330.109375 344.738281 "/>
<path style=" stroke:none;fill-rule:nonzero;fill:rgb(0%,0%,0%);fill-opacity:1;" d="M 386.601562 346.390625 C 385.550781 354.941406 385.851562 397.40625 386.976562 398.53125 C 387.652344 399.28125 387.878906 398.757812 387.878906 396.054688 C 387.878906 389.828125 389.453125 380.226562 391.253906 375.5 C 393.878906 368.371094 397.855469 362.667969 404.683594 356.140625 C 411.660156 349.464844 411.433594 348.488281 404.234375 354.492188 C 397.105469 360.34375 391.402344 368.597656 388.476562 377.375 L 387.128906 381.5 L 387.351562 361.394531 C 387.503906 350.367188 387.503906 341.363281 387.425781 341.363281 C 387.351562 341.363281 386.976562 343.613281 386.601562 346.390625 Z M 386.601562 346.390625 "/>
<path style=" stroke:none;fill-rule:nonzero;fill:rgb(0%,0%,0%);fill-opacity:1;" d="M 373.699219 358.992188 C 373.621094 374.972656 374.449219 388.703125 375.949219 396.128906 C 376.847656 400.40625 379.550781 408.433594 380 407.984375 C 380.148438 407.835938 379.476562 403.183594 378.5 397.628906 C 377.300781 390.878906 376.398438 381.875 375.875 370.621094 C 374.597656 344.214844 373.847656 340.238281 373.699219 358.992188 Z M 373.699219 358.992188 "/>
<path style=" stroke:none;fill-rule:nonzero;fill:rgb(0%,0%,0%);fill-opacity:1;" d="M 411.285156 370.472656 C 410.234375 382.550781 408.433594 390.351562 405.058594 396.957031 C 402.433594 402.355469 397.855469 408.882812 396.804688 408.882812 C 395.605469 408.882812 396.054688 405.582031 398.007812 399.882812 C 400.179688 393.578125 400.105469 393.65625 399.132812 394.253906 C 396.804688 395.679688 393.28125 407.234375 394.328125 409.859375 C 396.65625 416.085938 408.359375 399.132812 411.210938 385.402344 C 412.484375 379.175781 413.460938 361.394531 412.5625 360.492188 C 412.335938 360.34375 411.808594 364.84375 411.285156 370.472656 Z M 411.285156 370.472656 "/>
<path style=" stroke:none;fill-rule:nonzero;fill:rgb(0%,0%,0%);fill-opacity:1;" d="M 429.667969 426.289062 C 428.539062 426.664062 427.867188 427.339844 428.089844 427.789062 C 428.390625 428.242188 428.242188 428.390625 427.789062 428.089844 C 426.140625 427.117188 417.511719 432.59375 410.609375 439.195312 C 406.785156 442.871094 403.78125 446.023438 404.007812 446.246094 C 404.15625 446.472656 406.707031 444.445312 409.558594 441.746094 C 415.410156 436.195312 419.988281 432.890625 424.265625 431.015625 C 427.640625 429.589844 434.84375 429.367188 438.894531 430.640625 C 444.371094 432.21875 445.871094 430.792969 442.269531 427.265625 C 440.769531 425.691406 439.792969 425.390625 436.117188 425.464844 C 433.71875 425.464844 430.867188 425.839844 429.667969 426.289062 Z M 440.621094 428.316406 C 441.144531 428.839844 440.46875 428.917969 438.445312 428.617188 C 434.09375 427.941406 432.515625 426.742188 436.570312 427.191406 C 438.371094 427.339844 440.167969 427.867188 440.621094 428.316406 Z M 440.621094 428.316406 "/>
<path style=" stroke:none;fill-rule:nonzero;fill:rgb(0%,0%,0%);fill-opacity:1;" d="M 451.648438 461.027344 C 451.648438 462.152344 456.824219 467.929688 456.898438 466.804688 C 456.898438 466.277344 455.699219 464.628906 454.273438 463.050781 C 452.847656 461.550781 451.648438 460.578125 451.648438 461.027344 Z M 451.648438 461.027344 "/>
<path style=" stroke:none;fill-rule:nonzero;fill:rgb(0%,0%,0%);fill-opacity:1;" d="M 444.671875 465.753906 C 441.519531 468.980469 440.019531 471.15625 441.820312 470.105469 C 442.644531 469.578125 448.871094 462.152344 448.496094 462.152344 C 448.347656 462.152344 446.621094 463.800781 444.671875 465.753906 Z M 444.671875 465.753906 "/>
<path style=" stroke:none;fill-rule:nonzero;fill:rgb(0%,0%,0%);fill-opacity:1;" d="M 413.386719 464.175781 C 413.984375 464.402344 415.261719 465.304688 416.160156 466.128906 C 417.136719 466.953125 418.113281 467.480469 418.335938 467.253906 C 419.085938 466.429688 415.636719 463.652344 413.984375 463.726562 C 412.859375 463.726562 412.636719 463.878906 413.386719 464.175781 Z M 413.386719 464.175781 "/>
<path style=" stroke:none;fill-rule:nonzero;fill:rgb(0%,0%,0%);fill-opacity:1;" d="M 411.585938 487.585938 C 410.835938 488.410156 410.386719 489.535156 410.609375 490.0625 C 410.910156 490.738281 411.058594 490.660156 411.058594 489.835938 C 411.136719 489.160156 411.660156 488.109375 412.335938 487.585938 C 413.386719 486.761719 413.6875 486.835938 414.359375 488.035156 C 414.886719 488.859375 415.488281 490.359375 415.710938 491.410156 C 416.160156 493.0625 416.238281 492.914062 416.3125 490.585938 C 416.460938 486.386719 414.0625 484.882812 411.585938 487.585938 Z M 411.585938 487.585938 "/>
<path style=" stroke:none;fill-rule:nonzero;fill:rgb(0%,0%,0%);fill-opacity:1;" d="M 409.859375 498.390625 C 406.183594 499.289062 405.582031 500.414062 408.808594 500.414062 C 411.585938 500.414062 414.886719 499.214844 414.886719 498.164062 C 414.886719 497.339844 414.285156 497.339844 409.859375 498.390625 Z M 409.859375 498.390625 "/>
<path style=" stroke:none;fill-rule:nonzero;fill:rgb(0%,0%,0%);fill-opacity:1;" d="M 417.363281 500.566406 C 416.238281 501.691406 414.511719 502.289062 411.585938 502.515625 C 406.484375 502.964844 406.035156 504.164062 410.984375 504.164062 C 414.886719 504.164062 419.613281 502.066406 419.988281 500.113281 C 420.363281 498.464844 419.3125 498.613281 417.363281 500.566406 Z M 417.363281 500.566406 "/>
<path style=" stroke:none;fill-rule:nonzero;fill:rgb(0%,0%,0%);fill-opacity:1;" d="M 434.394531 499.664062 C 435.894531 500.640625 436.867188 500.640625 436.269531 499.664062 C 436.042969 499.214844 435.21875 498.914062 434.542969 498.914062 C 433.417969 498.914062 433.417969 499.0625 434.394531 499.664062 Z M 434.394531 499.664062 "/>
<path style=" stroke:none;fill-rule:nonzero;fill:rgb(0%,0%,0%);fill-opacity:1;" d="M 389.003906 502.214844 C 391.554688 503.492188 398.90625 503.789062 400.632812 502.664062 C 401.457031 502.140625 400.855469 501.914062 398.382812 501.914062 C 396.503906 501.914062 393.128906 501.765625 390.878906 501.539062 C 386.828125 501.164062 386.828125 501.164062 389.003906 502.214844 Z M 389.003906 502.214844 "/>
<path style=" stroke:none;fill-rule:nonzero;fill:rgb(0%,0%,0%);fill-opacity:1;" d="M 306.476562 502.515625 C 303.925781 504.765625 304.601562 504.539062 307.902344 502.066406 C 309.101562 501.164062 309.777344 500.414062 309.402344 500.414062 C 309.027344 500.414062 307.675781 501.390625 306.476562 502.515625 Z M 306.476562 502.515625 "/>
</g>
</svg>
